<svg id="visual" viewBox="0 0 960 540" width="960" height="540" xmlns="http://www.w3.org/2000/svg" xmlns:xlink="http://www.w3.org/1999/xlink" version="1.1"><path d="M502 0L485 45C468 90 434 180 449.5 270C465 360 530 450 562.5 495L595 540L0 540L0 495C0 450 0 360 0 270C0 180 0 90 0 45L0 0Z" fill="#daf8ff"></path><path d="M530 0L514.8 45C499.7 90 469.3 180 435.2 270C401 360 363 450 344 495L325 540L0 540L0 495C0 450 0 360 0 270C0 180 0 90 0 45L0 0Z" fill="#bfe6f5"></path><path d="M173 0L257.5 45C342 90 511 180 588.8 270C666.7 360 653.3 450 646.7 495L640 540L0 540L0 495C0 450 0 360 0 270C0 180 0 90 0 45L0 0Z" fill="#a7d3eb"></path><path d="M377 0L363.3 45C349.7 90 322.3 180 342 270C361.7 360 428.3 450 461.7 495L495 540L0 540L0 495C0 450 0 360 0 270C0 180 0 90 0 45L0 0Z" fill="#92c0e3"></path><path d="M408 0L369.5 45C331 90 254 180 198.2 270C142.3 360 107.7 450 90.3 495L73 540L0 540L0 495C0 450 0 360 0 270C0 180 0 90 0 45L0 0Z" fill="#83add9"></path><path d="M23 0L25.7 45C28.3 90 33.7 180 67.2 270C100.7 360 162.3 450 193.2 495L224 540L0 540L0 495C0 450 0 360 0 270C0 180 0 90 0 45L0 0Z" fill="#7a98ce"></path></svg>